<?xml version="1.0" encoding="UTF-8"?> <svg xmlns="http://www.w3.org/2000/svg" height="512" viewBox="0 0 128 128" width="512"> <g> <path d="m97.233 45.723s-1.867 6.446-12.44 8.383c-9.756 1.788-20.494 8.439-20.961 18.83-.606 13.481 15.587 23.276 27.99 12.856 14.032-11.792 5.411-40.069 5.411-40.069z" fill="#8dd95c"></path> <path d="m30.767 82.277s1.867-6.446 12.44-8.383c9.756-1.788 20.494-8.439 20.961-18.83.606-13.481-15.587-23.276-27.99-12.856-14.032 11.792-5.411 40.069-5.411 40.069z" fill="#c4e83b"></path> <g> <path d="m95.31 54.882a1.751 1.751 0 0 0 -2.293.932 50.319 50.319 0 0 1 -11.666 16.424c-.919.887-1.824 1.706-2.723 2.494a19.121 19.121 0 0 1 -1.153-6.615 1.75 1.75 0 0 0 -3.483-.35c-.312 3.109 1 7.288 1.755 9.371a121.072 121.072 0 0 1 -10.6 7.383c-7.447 4.765-13.33 8.528-15.605 17.2a1.75 1.75 0 1 0 3.385.888c1.928-7.347 7.036-10.615 14.106-15.137a98.689 98.689 0 0 0 16.75-12.718c1.032-1 2-2.014 2.931-3.04a13.724 13.724 0 0 0 3.726.566 7.317 7.317 0 0 0 4.151-1.136 1.75 1.75 0 0 0 -1.966-2.9 4.956 4.956 0 0 1 -3.318.435 49.419 49.419 0 0 0 6.935-11.509 1.749 1.749 0 0 0 -.932-2.288z" fill="#fce3b3"></path> <path d="m50.525 59.883a1.75 1.75 0 0 0 3.483.35c.312-3.109-1-7.288-1.755-9.371a121.072 121.072 0 0 1 10.6-7.383c7.447-4.765 13.33-8.528 15.605-17.2a1.75 1.75 0 1 0 -3.385-.888c-1.927 7.349-7.035 10.617-14.105 15.139a98.689 98.689 0 0 0 -16.751 12.716c-1.03 1-2 2.012-2.931 3.038-1.824-.526-5.314-1.168-7.877.572a1.75 1.75 0 1 0 1.966 2.9 4.951 4.951 0 0 1 3.314-.435 50.152 50.152 0 0 0 -6.484 10.479 1.75 1.75 0 1 0 3.189 1.443 51.053 51.053 0 0 1 11.255-15.481c.919-.887 1.824-1.706 2.723-2.494a19.121 19.121 0 0 1 1.153 6.615z" fill="#fff7ce"></path> </g> </g> </svg> 