<?xml version="1.0" encoding="UTF-8"?> <svg xmlns="http://www.w3.org/2000/svg" height="512" viewBox="0 0 128 128" width="512"> <g> <path d="m77.875 41.692c-4.537 4.538-13.3 3.13-13.3 3.13s-1.407-8.765 3.131-13.3 15.877-5.7 15.877-5.7-1.17 11.332-5.708 15.87z" fill="#c4e83b"></path> <path d="m72.314 35.861a1.747 1.747 0 0 0 -2.453.325l-6.305 8.225-6-3.55a1.75 1.75 0 0 0 -1.783 3.012l6.473 3.833v6.922a1.75 1.75 0 0 0 3.5 0v-7.328l6.889-8.988a1.749 1.749 0 0 0 -.321-2.451z" fill="#fecec1"></path> <path d="m89.3 64.767c-.17.091-.341.18-.52.257a7.011 7.011 0 0 1 -9.314-4.347 8.277 8.277 0 0 1 .5-6.8 7.581 7.581 0 0 1 -2.966-3.777 8.352 8.352 0 0 1 -.275-.934 15.636 15.636 0 0 0 -12.725 5.462s-5.493-7.387-16.244-5.006c-12.7 2.813-14.92 21.212-8.647 35.042 6.813 15.018 18.341 17.521 18.341 17.521s4.192 0 6.55-2.146c2.358 2.146 6.55 2.146 6.55 2.146s11.528-2.5 18.34-17.521a37.807 37.807 0 0 0 3.288-18 7.111 7.111 0 0 1 -2.878-1.897z" fill="#fd9126"></path> <path d="m43.057 69.016a1.752 1.752 0 0 1 -1.739-1.563 13.26 13.26 0 0 1 2.826-9.415 9.569 9.569 0 0 1 6.537-3.654 1.75 1.75 0 0 1 .357 3.482 6.2 6.2 0 0 0 -4.175 2.375 9.771 9.771 0 0 0 -2.063 6.839 1.75 1.75 0 0 1 -1.554 1.926 1.7 1.7 0 0 1 -.189.01z" fill="#fff7ce"></path> </g> </svg> 