<?xml version="1.0" encoding="UTF-8"?> <!-- Generator: Adobe Illustrator 24.2.1, SVG Export Plug-In . SVG Version: 6.00 Build 0) --> <svg xmlns="http://www.w3.org/2000/svg" xmlns:xlink="http://www.w3.org/1999/xlink" id="Слой_1" x="0px" y="0px" viewBox="0 0 313 70.6" style="enable-background:new 0 0 313 70.6;" xml:space="preserve"> <style type="text/css"> .st0{fill:none;} .st1{enable-background:new ;} .st2{fill:#FFFFFF;} .st3{fill:#FFFFFF;stroke:#FFFFFF;stroke-width:0.75;stroke-miterlimit:10;} </style> <g id="Слой_1-2"> <g id="_2394553728416"> <rect x="70.3" y="11.1" class="st0" width="225.6" height="24.2"></rect> <g class="st1"> <path class="st2" d="M74,12.4h8.3c6.7,0,11.2,4.4,11.2,10.5c0,6.1-4.5,10.5-11.2,10.5H74V12.4z M82.2,32c5.9,0,9.7-3.8,9.7-9.1 s-3.8-9.1-9.7-9.1h-6.7V32H82.2z"></path> <path class="st2" d="M98.7,12.4h1.5v21h-1.5V12.4z"></path> <path class="st2" d="M120.6,27.4h-12.2l-2.7,5.9h-1.6l9.7-21h1.5l9.7,21h-1.6L120.6,27.4z M120,26.2L114.5,14L109,26.2H120z"></path> <path class="st2" d="M148.6,33.4l0-18l-8.8,15.2H139l-8.8-15.1v17.9h-1.5v-21h1.3l9.4,16.2l9.4-16.2h1.3l0,21H148.6z"></path> <path class="st2" d="M155.4,22.9c0-6.1,4.6-10.6,10.9-10.6c6.2,0,10.9,4.5,10.9,10.6c0,6.1-4.7,10.7-10.9,10.7 C160.1,33.5,155.4,28.9,155.4,22.9z M175.7,22.9c0-5.3-4-9.2-9.4-9.2c-5.4,0-9.4,3.9-9.4,9.2c0,5.3,4,9.2,9.4,9.2 C171.7,32.1,175.7,28.2,175.7,22.9z"></path> <path class="st2" d="M199.7,12.4v21h-1.3l-14.3-18.2v18.2h-1.5v-21h1.3l14.3,18.2V12.4H199.7z"></path> <path class="st2" d="M207,12.4h8.3c6.7,0,11.2,4.4,11.2,10.5c0,6.1-4.5,10.5-11.2,10.5H207V12.4z M215.2,32 c5.9,0,9.8-3.8,9.8-9.1s-3.8-9.1-9.8-9.1h-6.7V32H215.2z"></path> </g> <g class="st1"> <path class="st2" d="M244,33.4l-4-5.8h-0.2h-4.2v5.8h-4.9v-21h9.1c5.6,0,9.1,2.9,9.1,7.6c0,3.2-1.6,5.5-4.3,6.6l4.7,6.8H244z M239.4,16.3h-4v7.3h4c3,0,4.5-1.4,4.5-3.7C243.9,17.7,242.4,16.3,239.4,16.3z"></path> </g> <g class="st1"> <path class="st2" d="M266.5,28.9h-9.8l-1.9,4.5h-5l9.4-21h4.8l9.4,21h-5.1L266.5,28.9z M264.9,25.2l-3.3-8l-3.3,8H264.9z"></path> </g> <g class="st1"> <path class="st2" d="M284.4,25.9v7.4h-4.9v-7.5l-8.1-13.5h5.2l5.6,9.3l5.6-9.3h4.8L284.4,25.9z"></path> </g> <g class="st1"> <path class="st2" d="M81.7,50.9H76l-1.2,2.8H74l4.5-9.8h0.7l4.5,9.8h-0.8L81.7,50.9z M81.4,50.3l-2.6-5.7l-2.6,5.7H81.4z"></path> <path class="st2" d="M98.1,53.7l-2.3-3.3c-0.3,0-0.6,0.1-1,0.1H92v3.2h-0.7v-9.8h3.5c2.5,0,4,1.2,4,3.3c0,1.6-0.8,2.6-2.3,3.1 l2.5,3.4H98.1z M94.8,49.9c2.1,0,3.2-1,3.2-2.7s-1.1-2.7-3.2-2.7H92v5.3h2.8V49.9z"></path> <path class="st2" d="M106.3,48.8c0-2.9,2.2-5,5.1-5c1.4,0,2.6,0.4,3.5,1.4l-0.4,0.5c-0.8-0.8-1.9-1.2-3-1.2 c-2.5,0-4.4,1.8-4.4,4.3s1.9,4.3,4.4,4.3c1.1,0,2.2-0.4,3-1.2l0.4,0.5c-0.9,0.9-2.1,1.4-3.5,1.4 C108.5,53.8,106.3,51.6,106.3,48.8z"></path> <path class="st2" d="M131.1,43.9v9.8h-0.7V49h-6.6v4.7h-0.7v-9.8h0.7v4.5h6.6v-4.5H131.1z"></path> <path class="st2" d="M140.3,43.9h0.7v9.8h-0.7V43.9z"></path> <path class="st2" d="M152.2,44.5h-3.5v-0.6h7.8v0.6H153v9.2h-0.7v-9.2H152.2z"></path> <path class="st2" d="M170.8,53v0.6H164v-9.8h6.6v0.6h-5.8v3.9h5.2V49h-5.2v4H170.8z"></path> <path class="st2" d="M178.2,48.8c0-2.9,2.2-5,5.1-5c1.4,0,2.6,0.4,3.5,1.4l-0.4,0.5c-0.8-0.8-1.9-1.2-3-1.2 c-2.5,0-4.4,1.8-4.4,4.3s1.9,4.3,4.4,4.3c1.1,0,2.2-0.4,3-1.2l0.4,0.5c-0.9,0.9-2.1,1.4-3.5,1.4 C180.4,53.8,178.2,51.6,178.2,48.8z"></path> <path class="st2" d="M196.8,44.5h-3.5v-0.6h7.8v0.6h-3.5v9.2h-0.7v-9.2H196.8z"></path> <path class="st2" d="M225.1,48.8h0.7v3.7c-0.9,0.8-2.2,1.3-3.5,1.3c-3,0-5.1-2.1-5.1-5s2.2-5,5.1-5c1.4,0,2.7,0.4,3.5,1.3 l-0.4,0.5c-0.9-0.8-1.9-1.2-3.1-1.2c-2.5,0-4.4,1.8-4.4,4.3s1.9,4.3,4.4,4.3c1,0,2-0.3,2.8-0.9V48.8z"></path> <path class="st2" d="M241.5,53.7l-2.3-3.3c-0.3,0-0.6,0.1-1,0.1h-2.8v3.2h-0.7v-9.8h3.5c2.5,0,3.9,1.2,3.9,3.3 c0,1.6-0.8,2.6-2.3,3.1l2.5,3.4H241.5z M238.2,49.9c2.1,0,3.2-1,3.2-2.7s-1.1-2.7-3.2-2.7h-2.8v5.3h2.8V49.9z"></path> <path class="st2" d="M249.7,48.8c0-2.8,2.2-5,5.1-5s5.1,2.1,5.1,5s-2.2,5-5.1,5S249.7,51.6,249.7,48.8z M259.2,48.8 c0-2.5-1.9-4.3-4.4-4.3s-4.4,1.8-4.4,4.3s1.9,4.3,4.4,4.3C257.3,53.1,259.2,51.3,259.2,48.8z"></path> <path class="st2" d="M268.1,49.5v-5.6h0.7v5.6c0,2.5,1.2,3.6,3.2,3.6s3.2-1.1,3.2-3.6v-5.6h0.7v5.6c0,2.8-1.5,4.2-3.9,4.2 C269.6,53.8,268.1,52.3,268.1,49.5z"></path> <path class="st2" d="M292.6,47.2c0,2.1-1.5,3.3-3.9,3.3h-2.8v3.2h-0.7v-9.8h3.5C291.1,43.9,292.6,45.1,292.6,47.2z M291.9,47.2 c0-1.7-1.1-2.7-3.2-2.7h-2.8v5.3h2.8C290.8,49.8,291.9,48.9,291.9,47.2z"></path> </g> </g> <path class="st3" d="M11.6,42.7l0.7-24.8l10.7,37L11.6,42.7z M46.8,26.7L23.6,55.3L12.5,16.7L46.8,26.7z M29.1,9.5l21.4,7.9 l11.7,26.9L46.8,56.5L24,55.6l23.6-29.1L12.8,16.4L29.1,9.5z M23.5,56l23.6,1l15.8-12.5L51,17.3l-0.1-0.1L29.1,9.1l-17.2,7.1 l-0.8,26.5L23.5,56z"></path> </g> </svg> 