<?xml version="1.0" encoding="UTF-8"?> <!-- Generator: Adobe Illustrator 23.0.1, SVG Export Plug-In . SVG Version: 6.00 Build 0) --> <svg xmlns="http://www.w3.org/2000/svg" xmlns:xlink="http://www.w3.org/1999/xlink" id="Слой_1" x="0px" y="0px" viewBox="0 0 187.6 55.1" style="enable-background:new 0 0 187.6 55.1;" xml:space="preserve"> <style type="text/css"> .st0{fill-rule:evenodd;clip-rule:evenodd;fill:#E31F25;} </style> <path class="st0" d="M52.3,11.1h23.4l0.4,9.4h-0.7c-0.1-1.6-0.5-3-1.2-4.4c-0.7-1.3-1.8-2.4-3-3.2c-1.3-0.8-2.8-1.2-4.5-1.2v24.9 h2.6v0.7H58.8v-0.7h2.6V11.7c-1.7,0-3.2,0.4-4.5,1.2s-2.3,1.8-3.1,3.2c-0.7,1.3-1.1,2.8-1.2,4.3h-0.7L52.3,11.1z M41,11.1v0.7h2.5 v11.3h-8.3V11.7h2.5v-0.6h-9.8v0.7h2v24.8h-2v0.7h9.8v-0.7h-2.5V23.7h8.3v12.9H41v0.7h9.8v-0.7h-2V11.7h2v-0.6H41z M16.6,11.1v0.7h2 v2.7L9.6,32V11.7h2v-0.6H2.3v0.7h2v24.8h-2v0.7h9.2v-0.7h-2v-3L18.6,16v20.6h-2v0.7h9.2v-0.7h-2V11.7h2v-0.6 C25.9,11.1,16.6,11.1,16.6,11.1z M77.4,11.1h18.4v8.3h-0.7c-0.1-1.2-0.3-2.3-0.8-3.5c-0.5-1.1-1.3-2.1-2.4-2.9 c-1.1-0.8-2.6-1.2-4.4-1.2h-2.8v11.7c1.5,0,2.8-0.5,3.8-1.4c1-1,1.5-2.2,1.5-3.8h0.7v11.3H90c0-1.1-0.2-2-0.7-2.8s-1.1-1.4-1.9-1.9 c-0.8-0.4-1.7-0.6-2.7-0.6v12.3h3c1.6,0,3-0.3,4.2-0.8c1.2-0.6,2.1-1.3,2.8-2.2c0.7-0.9,1.2-1.9,1.5-2.9s0.5-2.1,0.5-3.1h0.6v9.8 H77.4v-0.8h2V11.7h-2V11.1L77.4,11.1z M99.5,11.1h10.3c2.2,0,4,0.4,5.5,1.1c1.5,0.7,2.6,1.7,3.3,3c0.7,1.2,1.1,2.6,1.1,4.1 c0,1.6-0.4,3.1-1.3,4.3c-0.8,1.2-2,2.1-3.4,2.8c-1.4,0.6-3.1,0.9-4.9,0.9c-1.2,0-2.4-0.1-3.5-0.4v9.8h2.3v0.7h-9.6v-0.7h2v-25h-2 v-0.6H99.5z M106.8,11.7V26c0.7,0.3,1.5,0.5,2.3,0.5c2,0,3.4-0.6,4.1-1.9c0.7-1.2,1-3,1-5.3c0-2.1-0.2-3.8-0.7-4.9s-1-1.8-1.8-2.2 c-0.7-0.3-1.6-0.5-2.6-0.5L106.8,11.7L106.8,11.7z M164,11.1h10.3c2.1,0,4,0.4,5.5,1.1c1.5,0.7,2.6,1.7,3.4,3 c0.7,1.2,1.1,2.6,1.1,4.1c0,1.6-0.4,3.1-1.3,4.3c-0.8,1.2-2,2.1-3.4,2.8c-1.5,0.6-3.1,0.9-4.9,0.9c-1.2,0-2.4-0.1-3.5-0.4v9.8h2.3 v0.7h-9.6v-0.7h2v-25h-2L164,11.1L164,11.1z M171.3,11.7V26c0.7,0.3,1.5,0.5,2.3,0.5c2,0,3.4-0.6,4.1-1.9c0.7-1.2,1-3,1-5.3 c0-2.1-0.2-3.8-0.7-4.9s-1.1-1.8-1.8-2.2c-0.7-0.3-1.6-0.5-2.6-0.5L171.3,11.7L171.3,11.7z M120.6,11.1h9.4v0.7h-2v10.8 c1.1-0.3,2.3-0.4,3.6-0.4c2,0,3.7,0.4,5.2,1.2c1.4,0.8,2.5,1.8,3.2,3s1.1,2.5,1.1,3.9c0,0.9-0.2,1.8-0.6,2.7c-0.4,0.9-1,1.6-1.8,2.3 s-1.8,1.2-3.1,1.6c-1.2,0.4-2.7,0.6-4.3,0.6h-10.6v-0.7h2.1V11.7h-2.1L120.6,11.1L120.6,11.1z M128,23.3v13.3h3 c0.8,0,1.6-0.1,2.2-0.4c0.6-0.3,1.1-0.9,1.5-1.8s0.6-2.3,0.6-4.1c0-2.8-0.3-4.8-1-5.9c-0.7-1.1-1.8-1.6-3.3-1.6 C129.8,22.8,128.8,22.9,128,23.3 M142.3,11.1h18.4v8.3H160c-0.1-1.2-0.3-2.3-0.8-3.5c-0.5-1.1-1.3-2.1-2.4-2.9 c-1.1-0.8-2.6-1.2-4.4-1.2h-2.8v11.7c1.5,0,2.8-0.5,3.8-1.4c1-1,1.5-2.2,1.5-3.8h0.7v11.3h-0.7c0-1.1-0.2-2-0.7-2.8 s-1.1-1.4-1.9-1.9c-0.8-0.4-1.7-0.6-2.7-0.6v12.3h3c1.6,0,3-0.3,4.2-0.8c1.2-0.6,2.1-1.3,2.8-2.2c0.7-0.9,1.2-1.9,1.5-2.9 s0.5-2.1,0.5-3.1h0.7v9.8h-20v-0.8h2V11.7h-2V11.1L142.3,11.1z M7.1,7.7C7.1,7.6,7.1,7.6,7.1,7.7C7,7.6,6.9,7.6,6.9,7.7 C6.7,7.8,6.5,7.8,6.3,7.8C6,7.8,5.8,7.7,5.7,7.6C5.4,7.2,5.4,6.4,5.4,6.1c0-0.9,0.1-1.3,0.3-1.6C5.8,4.4,6,4.3,6.3,4.3 c0.2,0,0.4,0.1,0.6,0.2L7,4.6c0,0,0.1,0,0.1-0.1l0.2-0.3V4.1c0,0,0-0.1-0.1-0.2C7,3.7,6.5,3.6,6.2,3.6C5.4,3.6,4.4,4,4.4,6.2 c0,1,0.2,2.4,1.8,2.4c0.4,0,0.9-0.1,1.1-0.3l0.1-0.1V8.1L7.1,7.7L7.1,7.7z M23,6.1c0-0.5,0-2.5-1.7-2.5s-1.7,2-1.7,2.5 s0,2.5,1.7,2.5C22.9,8.6,23,6.6,23,6.1 M21.2,7.9c-0.7,0-0.8-1.2-0.8-1.8c0-0.7,0.1-1.8,0.8-1.8c0.7,0,0.8,1.1,0.8,1.8 C22,6.7,21.9,7.9,21.2,7.9 M35.9,3.8C35.8,3.8,35.8,3.8,35.9,3.8l-0.1,4.6c0,0.1,0,0.1,0.1,0.1h1.2c0.8,0,1.7-0.1,1.7-1.3 c0-0.9-0.6-1.1-0.9-1.2c0.4-0.1,0.8-0.4,0.8-1c0-0.5-0.2-0.8-0.4-1c-0.3-0.3-0.9-0.3-1.2-0.3L35.9,3.8L35.9,3.8z M36.8,5.8V4.5h0.3 c0.6,0,0.7,0.4,0.7,0.6c0,0.6-0.4,0.7-0.8,0.7H36.8L36.8,5.8z M36.8,7.9V6.5h0.3c0.3,0,0.9,0,0.9,0.7c0,0.6-0.5,0.7-0.9,0.7 L36.8,7.9L36.8,7.9z M53.1,4.5h0.3c0.3,0,0.7,0,0.7,0.7s-0.4,0.7-0.8,0.7h-0.2V4.5L53.1,4.5z M53.1,6.7h0.4c1,0,1.6-0.6,1.6-1.5 c0-0.7-0.3-1-0.6-1.1c-0.3-0.2-0.8-0.2-1.1-0.2h-1.1c-0.1,0-0.1,0-0.1,0.1v4.5c0,0.1,0,0.1,0.1,0.1H53c0.1,0,0.1-0.1,0.1-0.1V6.7 L53.1,6.7z M69.4,6.5h1.2c0.1,0,0.1,0,0.1-0.1V5.9c0-0.1,0-0.1-0.1-0.1h-1.2V4.6h1.4c0.1,0,0.1-0.1,0.1-0.1L71,4V3.9h-0.1h-2.4 c-0.1,0-0.1,0-0.1,0.1v4.5c0,0.1,0,0.1,0.1,0.1h2.3c0.1,0,0.1,0,0.1-0.1V8c0-0.1-0.1-0.1-0.1-0.1h-1.5L69.4,6.5L69.4,6.5z M85.2,7.4 C85.2,7.5,85.2,7.5,85.2,7.4l0.6,0.1c0.1,0,0.1-0.1,0.1-0.1l0.4-1.3c0.1-0.3,0.2-0.7,0.2-1.1l0,0v0.7c0,0.2,0,0.2,0,0.4l0.1,2.4 c0,0.1,0,0.1,0.1,0.1h0.7c0.1,0,0.1,0,0.1-0.1l-0.2-4.4c0-0.2,0-0.2-0.1-0.2h-0.7c-0.1,0-0.1,0-0.1,0.1l-0.6,1.8 c-0.1,0.3-0.2,0.5-0.2,0.8l0,0c0-0.1-0.1-0.6-0.2-0.8L84.8,4c0-0.1-0.1-0.1-0.1-0.1H84c-0.1,0-0.1,0-0.1,0.1l-0.2,4.5 c0,0.1,0,0.1,0.1,0.1h0.5c0.1,0,0.1-0.1,0.1-0.1l0.1-2.1c0-0.2,0-0.5,0-1.4l0,0c0.1,0.5,0.2,1,0.2,1.1L85.2,7.4L85.2,7.4z M102.2,6.5h1.2c0.1,0,0.1,0,0.1-0.1V5.9c0-0.1,0-0.1-0.1-0.1h-1.2V4.6h1.4c0.1,0,0.1-0.1,0.1-0.1l0.1-0.5V3.9h-0.1h-2.4 c-0.1,0-0.1,0-0.1,0.1v4.5c0.1,0,0.1,0.1,0.2,0.1h2.3c0.1,0,0.1,0,0.1-0.1V8c0-0.1-0.1-0.1-0.1-0.1h-1.5 C102.2,7.8,102.2,6.5,102.2,6.5z M116.6,8.5c0,0.1,0.1,0.1,0.1,0.1h0.7c0.1,0,0.1,0,0.1-0.1v-2h1.3v2c0,0.1,0.1,0.1,0.1,0.1h0.7 c0.1,0,0.1-0.1,0.1-0.1V4c0-0.1,0-0.1-0.1-0.1h-0.7c-0.1,0-0.1,0-0.1,0.1v1.8h-1.3V3.9c0-0.1-0.1-0.1-0.1-0.1h-0.7 c-0.1,0-0.1,0-0.1,0.1V8.5L116.6,8.5z M133,8.5c0,0.1,0.1,0.1,0.1,0.1h0.7c0.1,0,0.1,0,0.1-0.1v-2h1.3v2c0.1,0.1,0.1,0.1,0.2,0.1 h0.7c0.1,0,0.1-0.1,0.1-0.1V4c0-0.1,0-0.1-0.1-0.1h-0.7c-0.1,0-0.1,0-0.1,0.1v1.8H134V3.9c0-0.1-0.1-0.1-0.1-0.1h-0.7 c-0.1,0-0.1,0-0.1,0.1L133,8.5L133,8.5z M150.4,5.7V3.9c0-0.1,0-0.1-0.1-0.1h-0.7c-0.1,0-0.1,0-0.1,0.1v4.5c0,0.1,0,0.1,0.1,0.1h1.3 c0.6,0,1-0.2,1.2-0.3c0.4-0.3,0.4-0.8,0.4-1.1c0-0.4-0.1-0.9-0.5-1.2c-0.4-0.3-0.8-0.3-1.1-0.3L150.4,5.7L150.4,5.7z M150.4,7.8V6.5 h0.3c0.3,0,0.9,0,0.9,0.7c0,0.6-0.4,0.7-0.8,0.7L150.4,7.8L150.4,7.8z M153.9,8.6c0.1,0,0.1-0.1,0.1-0.1V3.9c0-0.1-0.1-0.1-0.1-0.1 h-0.7c-0.1,0-0.1,0.1-0.1,0.1v4.5c0,0.1,0,0.1,0.1,0.1L153.9,8.6L153.9,8.6z M169.5,3.8c-0.1,0-0.1,0.1-0.2,0.1l-0.9,1.9 c-0.1,0.2-0.4,0.8-0.5,1.1l0,0c0-0.8,0-0.7,0-1v-2c0-0.1,0-0.1-0.1-0.1h-0.7c-0.1,0-0.1,0-0.1,0.1v4.5c0,0.1,0,0.1,0.1,0.1h0.7 c0.1,0,0.1,0,0.2-0.1l1-2.1c0.1-0.2,0.2-0.4,0.4-0.9l0,0c0,0.2,0,0.6,0,0.8v2.2c0,0.1,0,0.1,0.1,0.1h0.7c0.1,0,0.1-0.1,0.1-0.1V3.9 c0-0.1,0-0.1-0.1-0.1L169.5,3.8L169.5,3.8z M169.2,2.6L169.2,2.6c-0.1,0-0.1,0.1-0.2,0.1c-0.1,0.2-0.2,0.3-0.4,0.3s-0.3-0.1-0.4-0.3 c0-0.1,0-0.1-0.1-0.1c0,0,0,0-0.1,0h-0.5c0,0-0.1,0-0.1,0.1c0,0.1,0,0.2,0.1,0.4c0.2,0.2,0.4,0.4,0.9,0.4s0.8-0.2,0.9-0.4 c0.1-0.2,0.1-0.3,0.1-0.4C169.4,2.6,169.4,2.6,169.2,2.6L169.2,2.6L169.2,2.6z M126.9,51.4c-0.2,0.1-0.4,0.2-0.6,0.2 c-0.2,0.1-0.5,0.1-0.9,0.1s-0.7-0.1-1-0.2c-0.3-0.1-0.6-0.3-0.8-0.5c-0.2-0.2-0.4-0.5-0.6-0.9c-0.1-0.4-0.2-0.8-0.2-1.2 c0-0.5,0.1-1,0.2-1.3c0.1-0.4,0.3-0.7,0.6-0.9s0.5-0.4,0.8-0.5s0.6-0.2,0.9-0.2c0.7,0,1.2,0.1,1.6,0.2l0.2-0.9 c-0.2-0.1-0.4-0.1-0.7-0.2c-0.3,0-0.7-0.1-1.1-0.1s-0.8,0.1-1.2,0.2c-0.4,0.1-0.8,0.4-1.1,0.7c-0.3,0.3-0.6,0.7-0.8,1.2 c-0.2,0.5-0.3,1.1-0.3,1.7c0,0.7,0.1,1.2,0.3,1.7c0.2,0.5,0.4,0.9,0.8,1.2c0.3,0.3,0.7,0.5,1.1,0.7s0.9,0.2,1.3,0.2s0.8,0,1.1-0.1 c0.4-0.1,0.7-0.2,0.9-0.3L126.9,51.4L126.9,51.4z M137.8,52.5h1v-7.3h-0.6l-3.8,4.8l-0.5,0.8h-0.1l0.1-0.8v-4.9h-1v7.3h0.6l3.8-4.8 l0.5-0.8l0,0l-0.1,0.8L137.8,52.5L137.8,52.5z M144.3,52.4c0.1,0,0.3,0.1,0.5,0.1s0.4,0,0.5,0c0.2,0,0.4,0,0.5,0c0.2,0,0.3,0,0.4,0 c0.4,0,0.8,0,1.1-0.1c0.4-0.1,0.7-0.2,1-0.4s0.5-0.4,0.7-0.8c0.2-0.3,0.2-0.7,0.2-1.1c0-0.4-0.1-0.8-0.2-1c-0.2-0.3-0.4-0.5-0.6-0.7 c-0.3-0.2-0.6-0.3-0.9-0.4c-0.4-0.1-0.7-0.1-1.1-0.1c-0.2,0-0.4,0-0.6,0c-0.2,0-0.3,0-0.5,0.1v-2h3.4v-0.9h-4.4V52.4L144.3,52.4z M146.2,51.6c-0.1,0-0.2,0-0.3,0h-0.3c-0.1,0-0.1,0-0.2,0V49c0,0,0.1,0,0.2,0c0.1,0,0.2,0,0.2,0h0.3c0.1,0,0.2,0,0.2,0 c0.3,0,0.5,0,0.7,0s0.4,0.1,0.6,0.2c0.2,0.1,0.3,0.2,0.4,0.4c0.1,0.2,0.2,0.4,0.2,0.7c0,0.2,0,0.4-0.1,0.6c-0.1,0.2-0.2,0.3-0.4,0.4 c-0.2,0.1-0.3,0.2-0.6,0.3c-0.2,0.1-0.4,0.1-0.7,0.1L146.2,51.6L146.2,51.6z M159.4,52.5h1v-7.3h-0.6L156,50l-0.5,0.8h-0.1l0.1-0.8 v-4.9h-1v7.3h0.6l3.8-4.8l0.5-0.8l0,0l-0.1,0.8L159.4,52.5L159.4,52.5z M166.8,52.5h1v-2.7c0,0,0.1,0,0.2,0c0.1,0,0.2,0,0.3,0h0.3 c0.1,0,0.2,0,0.2,0c0.4,0,0.8,0,1.2-0.1s0.7-0.2,1-0.4s0.5-0.4,0.7-0.8c0.2-0.3,0.3-0.7,0.3-1.1c0-0.5-0.1-0.8-0.3-1.1 s-0.4-0.5-0.7-0.7s-0.6-0.3-1-0.3c-0.4-0.1-0.7-0.1-1.1-0.1c-0.3,0-0.7,0-1,0s-0.7,0.1-1,0.1L166.8,52.5L166.8,52.5z M169.6,46.1 c0.2,0,0.4,0.1,0.6,0.2c0.2,0.1,0.3,0.2,0.5,0.4c0.1,0.2,0.2,0.4,0.2,0.7s-0.1,0.6-0.2,0.8c-0.1,0.2-0.3,0.4-0.5,0.5 s-0.4,0.2-0.7,0.2c-0.2,0-0.5,0.1-0.7,0.1h-0.2c-0.1,0-0.2,0-0.2,0c-0.1,0-0.2,0-0.3,0s-0.1,0-0.2,0v-2.8c0.1,0,0.2,0,0.4,0 s0.4,0,0.6,0C169.1,46,169.3,46,169.6,46.1L169.6,46.1z M177.1,52.4c0.2,0,0.3,0.1,0.5,0.1s0.4,0,0.5,0c0.2,0,0.3,0,0.5,0 s0.3,0,0.4,0c0.4,0,0.9,0,1.2-0.2c0.4-0.1,0.7-0.3,1-0.5s0.5-0.5,0.7-0.8s0.2-0.7,0.2-1.1c0-0.4-0.1-0.8-0.3-1.1s-0.4-0.5-0.7-0.7 s-0.6-0.3-0.9-0.4c-0.3-0.1-0.7-0.1-1.1-0.1c-0.1,0-0.2,0-0.3,0h-0.3c-0.1,0-0.2,0-0.3,0s-0.1,0-0.2,0v-2.8h-1.1L177.1,52.4 L177.1,52.4z M178.6,51.6c-0.2,0-0.3,0-0.4-0.1v-2.7c0,0,0.1,0,0.2,0c0.1,0,0.2,0,0.3,0h0.3c0.1,0,0.2,0,0.2,0c0.2,0,0.5,0,0.7,0.1 c0.2,0,0.4,0.1,0.6,0.2c0.2,0.1,0.3,0.2,0.4,0.4c0.1,0.2,0.2,0.4,0.2,0.7s-0.1,0.5-0.2,0.7c-0.1,0.2-0.2,0.3-0.4,0.5 c-0.2,0.1-0.4,0.2-0.6,0.3c-0.2,0.1-0.5,0.1-0.7,0.1C179,51.6,178.8,51.6,178.6,51.6L178.6,51.6z"></path> </svg> 