<?xml version="1.0" encoding="UTF-8"?> <svg xmlns="http://www.w3.org/2000/svg" id="Слой_1" data-name="Слой 1" viewBox="0 0 21.9 13.7"> <defs> <style>.cls-1{fill:#fff;}</style> </defs> <title>vkontaktefacebook белый</title> <path class="cls-1" d="M11.1,13.7c3.2,0,2-2,2.3-2.6V10A4.81,4.81,0,0,1,15,11.2c1.5,1.5,1.9,2.4,3.1,2.4h2.2a1.9,1.9,0,0,0,1.3-.5,1.53,1.53,0,0,0,.2-1.3c-.5-1.6-3.4-4.3-3.6-4.6,0-.1.1-.1.1-.2h0a29,29,0,0,0,3.1-5.4h0A1.28,1.28,0,0,0,21.2.4,1.82,1.82,0,0,0,20.1,0H17.9a1.62,1.62,0,0,0-1.6,1.1,15.34,15.34,0,0,1-2.9,4.7v-3c0-1.4.1-2.8-1.3-2.8H8.5A1.16,1.16,0,0,0,7.3,1.2a1.28,1.28,0,0,0,.4,1c.8,1,.3,1.6.5,4.5A15.46,15.46,0,0,1,5.4,1.3,1.71,1.71,0,0,0,3.7,0H1.5A1.34,1.34,0,0,0,0,1.1v.3C0,3.2,4.1,13.7,11.1,13.7ZM3.7,1.4c.2,0,.2,0,.4.4C5,4.4,7,8.3,8.4,8.3c1.1,0,1.1-1.1,1.1-1.6V3.4a3.72,3.72,0,0,0-.7-2H12V6c0,1.3,1,2,2.6.4a19.83,19.83,0,0,0,2.9-4.8c.1-.2.1-.2.3-.2H20c-.2,1-2.2,4-2.9,5h0a1.5,1.5,0,0,0,0,1.8h0l.4.4c.6.6,2.8,2.8,3,3.7H18.1c-.5,0-.8-.7-2.2-2-1.2-1.2-2-1.7-2.7-1.7-1.4,0-1.3,1.1-1.3,2.5v1.1a2.77,2.77,0,0,1-.9.1c-5.8,0-9.6-9.2-9.7-10.9Z"></path> </svg> 