<?xml version="1.0" encoding="UTF-8"?> <svg xmlns="http://www.w3.org/2000/svg" id="Слой_1" data-name="Слой 1" viewBox="0 0 24 24"> <defs> <style>.cls-1{fill:none;stroke:#fff;stroke-linecap:round;stroke-linejoin:round;stroke-width:1.5px;}</style> </defs> <title>youtube белый</title> <path class="cls-1" d="M22.54,6.42a2.77,2.77,0,0,0-1.94-2C18.88,4,12,4,12,4s-6.88,0-8.6.46a2.77,2.77,0,0,0-1.94,2A29.38,29.38,0,0,0,1,11.75a28.85,28.85,0,0,0,.46,5.33A2.78,2.78,0,0,0,3.4,19c1.72.46,8.6.46,8.6.46s6.88,0,8.6-.46a2.77,2.77,0,0,0,1.94-2A28.87,28.87,0,0,0,23,11.75,28.85,28.85,0,0,0,22.54,6.42Z"></path> <polygon class="cls-1" points="9.75 15.02 15.5 11.75 9.75 8.48 9.75 15.02"></polygon> </svg> 