<?xml version="1.0" encoding="UTF-8"?> <!-- Generator: Adobe Illustrator 23.0.1, SVG Export Plug-In . SVG Version: 6.00 Build 0) --> <svg xmlns="http://www.w3.org/2000/svg" xmlns:xlink="http://www.w3.org/1999/xlink" id="Слой_1" x="0px" y="0px" viewBox="0 0 21.5 21.5" style="enable-background:new 0 0 21.5 21.5;" xml:space="preserve"> <style type="text/css"> .st0{fill:none;stroke:#37393B;stroke-width:1.5;stroke-linecap:round;stroke-linejoin:round;} </style> <title>instagram (белый)</title> <path class="st0" d="M5.8,0.7h10c2.8,0,5,2.2,5,5v10c0,2.8-2.2,5-5,5h-10c-2.8,0-5-2.2-5-5v-10C0.8,3,3,0.7,5.8,0.7z"></path> <path class="st0" d="M14.8,10.1c0.3,2.2-1.2,4.2-3.4,4.5c-2.2,0.3-4.2-1.2-4.5-3.4C6.5,9.1,8,7.1,10.2,6.8c0,0,0,0,0,0 c0.4-0.1,0.8-0.1,1.2,0C13.1,7,14.5,8.4,14.8,10.1z"></path> <line class="st0" x1="16.2" y1="5.2" x2="16.3" y2="5.2"></line> </svg> 