<?xml version="1.0" encoding="UTF-8"?> <!-- Generator: Adobe Illustrator 23.0.1, SVG Export Plug-In . SVG Version: 6.00 Build 0) --> <svg xmlns="http://www.w3.org/2000/svg" xmlns:xlink="http://www.w3.org/1999/xlink" id="Слой_1" x="0px" y="0px" viewBox="0 0 21.9 13.7" style="enable-background:new 0 0 21.9 13.7;" xml:space="preserve"> <style type="text/css"> .st0{fill:#37393B;} </style> <title>vkontaktefacebook белый</title> <path class="st0" d="M11.1,13.7c3.2,0,2-2,2.3-2.6V10c0.6,0.3,1.2,0.7,1.6,1.2c1.5,1.5,1.9,2.4,3.1,2.4h2.2c0.5,0,0.9-0.2,1.3-0.5 c0.3-0.4,0.3-0.9,0.2-1.3c-0.5-1.6-3.4-4.3-3.6-4.6c0-0.1,0.1-0.1,0.1-0.2l0,0c1.2-1.7,2.3-3.5,3.1-5.4l0,0c0.1-0.4,0.1-0.9-0.2-1.2 C20.9,0.1,20.5,0,20.1,0h-2.2c-0.7,0-1.4,0.4-1.6,1.1c-0.7,1.7-1.7,3.3-2.9,4.7v-3c0-1.4,0.1-2.8-1.3-2.8H8.5C7.9,0,7.3,0.5,7.3,1.1 c0,0,0,0.1,0,0.1c0,0.4,0.1,0.7,0.4,1c0.8,1,0.3,1.6,0.5,4.5C6.9,5.1,6,3.3,5.4,1.3C5.2,0.5,4.5,0,3.7,0H1.5C0.8-0.1,0.1,0.4,0,1.1 v0.3C0,3.2,4.1,13.7,11.1,13.7z M3.7,1.4c0.2,0,0.2,0,0.4,0.4C5,4.4,7,8.3,8.4,8.3c1.1,0,1.1-1.1,1.1-1.6V3.4c0-0.7-0.3-1.4-0.7-2 H12V6c0,1.3,1,2,2.6,0.4c1.2-1.5,2.2-3.1,2.9-4.8c0.1-0.2,0.1-0.2,0.3-0.2H20c-0.2,1-2.2,4-2.9,5l0,0c-0.4,0.5-0.4,1.3,0,1.8l0,0 l0.4,0.4c0.6,0.6,2.8,2.8,3,3.7h-2.4c-0.5,0-0.8-0.7-2.2-2c-1.2-1.2-2-1.7-2.7-1.7c-1.4,0-1.3,1.1-1.3,2.5v1.1 c-0.3,0.1-0.6,0.1-0.9,0.1c-5.8,0-9.6-9.2-9.7-10.9L3.7,1.4z"></path> </svg> 