<?xml version="1.0" encoding="UTF-8"?> <!-- Generator: Adobe Illustrator 23.0.1, SVG Export Plug-In . SVG Version: 6.00 Build 0) --> <svg xmlns="http://www.w3.org/2000/svg" xmlns:xlink="http://www.w3.org/1999/xlink" id="Слой_1" x="0px" y="0px" viewBox="0 0 24 24" style="enable-background:new 0 0 24 24;" xml:space="preserve"> <style type="text/css"> .st0{fill:none;stroke:#ffffff;stroke-width:1.5;stroke-linecap:round;stroke-linejoin:round;} </style> <title>youtube белый</title> <path class="st0" d="M22.5,6.4c-0.2-1-1-1.7-1.9-2C18.9,4,12,4,12,4S5.1,4,3.4,4.5c-1,0.3-1.7,1-1.9,2C1.1,8.2,1,10,1,11.7 c0,1.8,0.1,3.6,0.5,5.3c0.3,0.9,1,1.7,1.9,1.9c1.7,0.5,8.6,0.5,8.6,0.5s6.9,0,8.6-0.5c1-0.3,1.7-1,1.9-2c0.3-1.7,0.5-3.5,0.5-5.2 C23,10,22.9,8.2,22.5,6.4z"></path> <polygon class="st0" points="9.8,15 15.5,11.7 9.8,8.5 "></polygon> </svg> 