<?xml version="1.0" encoding="UTF-8" ?>
<svg xmlns="http://www.w3.org/2000/svg" fill='#fff' xmlns:xlink="http://www.w3.org/1999/xlink" id="Слой_1" x="0px" y="0px" viewBox="0 0 239.2 185.3" style="enable-background:new 0 0 239.2 185.3;" xml:space="preserve">
  <style type="text/css"> .st0{fill:none;} .st1{enable-background:new ;} .st2{fill:#ffffff;stroke:#ffffff;stroke-width:0.75;stroke-miterlimit:10;} </style>
  <g id="Вертикаль">
    <g id="Слой_1_1_">
      <g id="_2394553728416">
        <rect x="8.9" y="128.9" class="st0" width="225.6" height="24.2"></rect>
        <g class="st1">
          <path d="M12.6,130.2h8.3c6.7,0,11.2,4.4,11.2,10.5c0,6.1-4.5,10.5-11.2,10.5h-8.3V130.2z M20.8,149.8c5.9,0,9.7-3.8,9.7-9.1 s-3.8-9.1-9.7-9.1h-6.7v18.2H20.8z"></path>
          <path d="M37.4,130.2h1.5v21h-1.5V130.2z"></path>
          <path d="M59.2,145.3H47l-2.7,5.9h-1.6l9.7-21h1.5l9.7,21h-1.6L59.2,145.3z M58.6,144l-5.5-12.1L47.6,144H58.6z"></path>
          <path d="M87.2,151.2l0-18l-8.8,15.2h-0.8l-8.8-15.1v17.9h-1.5v-21h1.3l9.4,16.2l9.4-16.2h1.3l0,21H87.2z"></path>
          <path d="M94,140.7c0-6.1,4.6-10.6,10.9-10.6c6.2,0,10.9,4.5,10.9,10.6c0,6.1-4.7,10.7-10.9,10.7C98.7,151.3,94,146.8,94,140.7z M114.3,140.7c0-5.3-4-9.2-9.4-9.2c-5.4,0-9.4,3.9-9.4,9.2c0,5.3,4,9.2,9.4,9.2C110.3,149.9,114.3,146,114.3,140.7z"></path>
          <path d="M138.3,130.2v21H137l-14.3-18.2v18.2h-1.5v-21h1.3l14.3,18.2v-18.2H138.3z"></path>
          <path d="M145.6,130.2h8.3c6.7,0,11.2,4.4,11.2,10.5c0,6.1-4.5,10.5-11.2,10.5h-8.3V130.2z M153.8,149.8c5.9,0,9.7-3.8,9.7-9.1 s-3.8-9.1-9.7-9.1h-6.7v18.2H153.8z"></path>
        </g>
        <g class="st1">
          <path d="M182.6,151.2l-4-5.8h-0.2h-4.2v5.8h-4.9v-21h9.1c5.6,0,9.1,2.9,9.1,7.6c0,3.2-1.6,5.5-4.3,6.6l4.7,6.8H182.6z M178,134.1h-4v7.3h4c3,0,4.5-1.4,4.5-3.7C182.5,135.5,181,134.1,178,134.1z"></path>
        </g>
        <g class="st1">
          <path d="M205.1,146.7h-9.8l-1.9,4.5h-5l9.4-21h4.8l9.4,21H207L205.1,146.7z M203.6,143l-3.3-8l-3.3,8H203.6z"></path>
        </g>
        <g class="st1">
          <path d="M223,143.7v7.4h-4.9v-7.5l-8.1-13.5h5.2l5.6,9.3l5.6-9.3h4.8L223,143.7z"></path>
        </g>
        <rect x="12.1" y="161.1" class="st0" width="218.3" height="24.2"></rect>
        <g class="st1">
          <path d="M20.3,168.8h-5.7l-1.2,2.8h-0.8l4.5-9.8h0.7l4.5,9.8h-0.8L20.3,168.8z M20,168.1l-2.6-5.7l-2.6,5.7H20z"></path>
          <path d="M36.7,171.5l-2.3-3.3c-0.3,0-0.6,0.1-1,0.1h-2.8v3.2h-0.7v-9.8h3.5c2.5,0,4,1.2,4,3.3c0,1.6-0.8,2.6-2.3,3.1l2.5,3.4 H36.7z M33.4,167.7c2.1,0,3.2-1,3.2-2.7s-1.1-2.7-3.2-2.7h-2.8v5.3L33.4,167.7L33.4,167.7z"></path>
          <path d="M44.9,166.6c0-2.9,2.2-5,5.1-5c1.4,0,2.6,0.4,3.5,1.4l-0.4,0.5c-0.8-0.8-1.9-1.2-3-1.2c-2.5,0-4.4,1.8-4.4,4.3 s1.9,4.3,4.4,4.3c1.1,0,2.2-0.4,3-1.2l0.4,0.5c-0.9,0.9-2.1,1.4-3.5,1.4C47.1,171.6,44.9,169.5,44.9,166.6z"></path>
          <path d="M69.7,161.7v9.8H69v-4.7h-6.6v4.7h-0.7v-9.8h0.7v4.5H69v-4.5H69.7z"></path>
          <path d="M78.9,161.7h0.7v9.8h-0.7V161.7z"></path>
          <path d="M90.8,162.3h-3.5v-0.6H95v0.6h-3.5v9.2h-0.7V162.3z"></path>
          <path d="M109.4,170.9v0.6h-6.8v-9.8h6.6v0.6h-5.8v3.9h5.2v0.6h-5.2v4L109.4,170.9L109.4,170.9z"></path>
          <path d="M116.8,166.6c0-2.9,2.2-5,5.1-5c1.4,0,2.6,0.4,3.5,1.4l-0.4,0.5c-0.8-0.8-1.9-1.2-3-1.2c-2.5,0-4.4,1.8-4.4,4.3 s1.9,4.3,4.4,4.3c1.1,0,2.2-0.4,3-1.2l0.4,0.5c-0.9,0.9-2.1,1.4-3.5,1.4C119,171.6,116.8,169.5,116.8,166.6z"></path>
          <path d="M135.4,162.3h-3.5v-0.6h7.8v0.6h-3.5v9.2h-0.7v-9.2H135.4z"></path>
          <path d="M163.7,166.6h0.7v3.7c-0.9,0.8-2.2,1.3-3.5,1.3c-3,0-5.1-2.1-5.1-5s2.2-5,5.1-5c1.4,0,2.7,0.4,3.5,1.3l-0.4,0.5 c-0.9-0.8-1.9-1.2-3.1-1.2c-2.5,0-4.4,1.8-4.4,4.3s1.9,4.3,4.4,4.3c1,0,2-0.3,2.8-0.9V166.6z"></path>
          <path d="M180.1,171.5l-2.3-3.3c-0.3,0-0.6,0.1-1,0.1H174v3.2h-0.7v-9.8h3.5c2.5,0,4,1.2,4,3.3c0,1.6-0.8,2.6-2.3,3.1l2.5,3.4 H180.1z M176.8,167.7c2.1,0,3.2-1,3.2-2.7s-1.1-2.7-3.2-2.7H174v5.3L176.8,167.7L176.8,167.7z"></path>
          <path d="M188.3,166.6c0-2.8,2.2-5,5.1-5c2.9,0,5.1,2.1,5.1,5s-2.2,5-5.1,5S188.3,169.5,188.3,166.6z M197.8,166.6 c0-2.5-1.9-4.3-4.4-4.3s-4.4,1.8-4.4,4.3s1.9,4.3,4.4,4.3C195.9,170.9,197.8,169.1,197.8,166.6z"></path>
          <path d="M206.7,167.3v-5.6h0.7v5.6c0,2.5,1.2,3.6,3.2,3.6s3.2-1.1,3.2-3.6v-5.6h0.7v5.6c0,2.8-1.5,4.2-3.9,4.2 S206.7,170.2,206.7,167.3z"></path>
          <path d="M231.2,165c0,2.1-1.5,3.3-4,3.3h-2.8v3.2h-0.7v-9.8h3.5C229.7,161.7,231.2,162.9,231.2,165z M230.5,165 c0-1.7-1.1-2.7-3.2-2.7h-2.8v5.3h2.8C229.4,167.7,230.5,166.7,230.5,165z"></path>
        </g>
      </g>
      <path class="st2" d="M70.4,78.9l1.4-50.7l21.9,75.7L70.4,78.9z M142.4,46.2L95,104.7l-22.8-79L142.4,46.2z M106.2,11L150,27.2 l23.9,55l-31.5,25l-46.6-1.8L144,45.8L72.8,25.1L106.2,11z M94.7,106.1l48.3,2.1l32.3-25.6L151,26.9l-0.2-0.2l-44.6-16.6L71,24.7 l-1.7,54.2L94.7,106.1z"></path>
    </g>
  </g>
</svg>