<?xml version="1.0" encoding="UTF-8"?> <!-- Generator: Adobe Illustrator 23.0.1, SVG Export Plug-In . SVG Version: 6.00 Build 0) --> <svg xmlns="http://www.w3.org/2000/svg" xmlns:xlink="http://www.w3.org/1999/xlink" id="Capa_1" x="0px" y="0px" viewBox="0 0 512 512" style="enable-background:new 0 0 512 512;" xml:space="preserve"> <style type="text/css"> .st0{fill:#37393B;} </style> <g> <path class="st0" d="M441.4,133.2C423.4,75,376,27.6,317.8,9.6C297.4,3.3,276.4,0,256,0c-41.7,0-81.9,12.9-115.5,38.1 C90.7,74.7,61,133.2,61,195c0,42.6,13.5,83.1,39,117l156,200l156-200C450.1,261,460.9,195.9,441.4,133.2z M256,300 c-57.9,0-105-47.1-105-105S198.1,90,256,90s105,47.1,105,105S313.9,300,256,300z"></path> </g> <path class="st0" d="M412,312L256,512V300c57.9,0,105-47.1,105-105S313.9,90,256,90V0c20.4,0,41.4,3.3,61.8,9.6 C376,27.6,423.4,75,441.4,133.2C460.9,195.9,450.1,261,412,312z"></path> </svg> 